# xmcd
#
# Track frame offsets:
#	150
#	25890
#	50472
#	61730
#	99398
#	132716
#	158909
#	181107
#	202073
#	229567
#	246279
#	265378
#	283211
#
# Disc length: 3912 seconds
#
# Revision: 1
# Processed by: cddbd v1.5.2PL0 Copyright (c) Steve Scherf et al.
# Submitted via: audiograbber 1.83.01
#
DISCID=bb0f460d
DTITLE=Jeff Beck - Beckology - Disc 3
DYEAR=1991
DGENRE=Rock
TTITLE0=Cause We've Ended As Lovers
TTITLE1=Goodbye Pork Pie Hat
TTITLE2=Love Is Green
TTITLE3=Diamond Dust
TTITLE4=Freeway Jam [Live]
TTITLE5=The Pump
TTITLE6=People Get Ready
TTITLE7=Escape
TTITLE8=Gets Us All In The End
TTITLE9=Back On The Street
TTITLE10=Wild Thing
TTITLE11=The Train Kept A-Rollin'
TTITLE12=Sleep Walk
EXTD=
EXTT0=
EXTT1=
EXTT2=
EXTT3=
EXTT4=
EXTT5=
EXTT6=
EXTT7=
EXTT8=
EXTT9=
EXTT10=
EXTT11=
EXTT12=
PLAYORDER=
